<?xml version="1.0" standalone="no"?>
<!DOCTYPE svg PUBLIC "-//W3C//DTD SVG 20010904//EN"
 "http://www.w3.org/TR/2001/REC-SVG-20010904/DTD/svg10.dtd">
<svg version="1.0" xmlns="http://www.w3.org/2000/svg"
 width="464.000000pt" height="464.000000pt" viewBox="0 0 464.000000 464.000000"
 preserveAspectRatio="xMidYMid meet">
<metadata>
Created by potrace 1.14, written by Peter Selinger 2001-2017
</metadata>
<g transform="translate(0.000000,464.000000) scale(0.100000,-0.100000)"
fill="#000000" stroke="none">
<path d="M1585 3545 c-14 -13 -25 -33 -25 -44 0 -11 -9 -57 -20 -103 -10 -46
-22 -98 -25 -117 -3 -19 -7 -37 -9 -40 -2 -3 -7 -23 -10 -43 -3 -20 -30 -149
-61 -287 -30 -137 -56 -260 -59 -273 -19 -108 -30 -147 -37 -142 -5 3 -6 -2
-3 -11 4 -8 2 -34 -4 -58 -6 -23 -13 -57 -17 -74 -3 -18 -12 -63 -21 -100 -9
-38 -18 -79 -20 -92 -3 -13 -12 -54 -20 -90 -8 -36 -16 -79 -19 -96 -11 -73
-31 -120 -50 -120 -16 0 -22 15 -37 90 -10 50 -20 106 -21 125 -1 19 -6 38
-10 41 -4 3 -9 26 -10 51 -1 25 -5 44 -9 41 -5 -2 -8 7 -8 20 0 13 -6 45 -14
70 -10 34 -11 47 -2 51 7 3 7 5 -1 5 -7 1 -13 8 -13 18 0 14 2 14 18 2 11 -8
10 -6 -3 7 -21 21 -24 30 -30 77 -2 15 -7 32 -10 37 -3 6 0 10 7 10 10 0 10 2
-1 9 -8 5 -11 16 -8 26 4 9 3 14 -3 10 -6 -3 -11 6 -12 22 -2 37 -6 66 -8 76
-1 4 -4 12 -5 17 -1 6 -4 11 -5 13 -1 1 -3 14 -4 29 -1 15 -5 30 -9 34 -15 15
-6 26 11 13 10 -8 8 -4 -5 11 -12 15 -22 41 -24 65 -2 22 -7 46 -12 53 -6 8
-5 12 4 12 10 0 11 2 2 8 -6 4 -13 25 -15 47 -2 22 -7 43 -11 46 -4 3 -9 21
-11 40 -2 20 -7 46 -11 58 -4 14 -3 21 2 18 5 -4 10 0 10 8 0 8 -5 13 -10 12
-5 -1 -11 7 -13 18 -5 32 -26 65 -43 66 -9 1 -32 2 -51 3 -19 2 -47 -3 -62
-10 -26 -14 -32 -27 -51 -124 -3 -14 -8 -36 -11 -50 -3 -14 -8 -36 -10 -50 -8
-52 -68 -336 -73 -350 -4 -8 -5 -18 -5 -22 1 -4 -5 -36 -12 -70 -8 -35 -17
-76 -19 -93 -3 -16 -13 -66 -22 -110 -16 -79 -23 -110 -26 -130 -3 -22 -42
-66 -54 -61 -8 3 -15 1 -17 -3 -2 -4 -75 -24 -163 -45 -88 -21 -163 -41 -167
-45 -4 -3 25 -7 65 -8 238 -4 481 -14 490 -20 5 -3 7 -1 3 5 -3 6 2 13 13 17
18 6 41 68 41 114 0 12 4 21 8 21 4 0 8 10 8 23 1 12 4 40 8 62 5 22 8 46 9
53 0 6 3 12 6 12 3 0 7 21 8 46 1 25 3 47 5 49 7 6 52 17 46 10 -3 -3 2 -34
11 -68 10 -34 18 -76 17 -94 -1 -17 2 -29 7 -26 4 2 7 -4 8 -14 1 -20 2 -29
18 -102 6 -28 10 -55 9 -59 0 -4 2 -15 7 -26 5 -12 3 -27 -5 -40 -12 -18 -11
-19 2 -8 13 10 17 0 33 -80 10 -51 19 -100 20 -108 1 -8 5 -22 8 -30 3 -8 13
-53 22 -100 9 -47 21 -105 26 -130 14 -67 22 -113 23 -135 1 -11 4 -23 9 -26
4 -3 9 -26 11 -51 2 -25 6 -50 9 -55 3 -5 13 -43 22 -84 9 -41 18 -83 20 -93
7 -33 37 -52 70 -46 20 4 34 1 43 -10 8 -8 11 -10 8 -4 -6 13 20 27 34 19 4
-3 7 3 6 13 0 10 5 16 13 14 12 -3 12 0 2 12 -7 9 -9 21 -5 28 5 7 9 18 10 23
1 6 4 27 8 47 9 60 10 62 26 76 8 8 9 11 3 7 -8 -4 -13 0 -13 9 0 15 12 21 33
17 5 -1 6 3 2 9 -3 6 -11 7 -17 4 -7 -5 -9 2 -4 22 13 60 17 80 18 102 1 12 5
22 9 22 5 0 6 9 4 20 -2 11 0 20 6 20 5 0 7 11 3 25 -4 16 -2 25 6 25 6 0 8
-5 4 -12 -4 -7 -3 -8 5 -4 9 6 9 11 0 22 -9 11 -9 17 1 29 10 12 10 15 -1 15
-9 0 -10 3 -4 8 9 6 14 23 17 60 1 6 4 12 7 12 3 0 7 19 8 41 0 23 7 46 15 50
10 7 10 9 -2 9 -9 0 -11 3 -5 8 6 4 11 23 13 41 1 19 10 44 20 55 9 11 11 16
3 11 -10 -6 -12 -1 -5 26 4 19 8 42 8 52 0 12 5 16 16 12 12 -5 13 -4 3 6 -17
17 -16 29 1 29 8 0 18 4 21 10 3 6 -1 7 -9 4 -20 -7 -20 0 -2 59 7 25 11 48 8
51 -2 3 0 12 6 19 7 8 8 18 4 22 -4 5 0 6 9 3 9 -4 16 -1 16 7 0 7 -6 11 -14
8 -7 -3 -13 0 -13 6 0 6 4 11 8 11 4 0 8 10 9 23 1 46 15 91 31 104 16 12 15
13 -2 6 -14 -4 -17 -3 -12 6 5 7 10 27 12 44 3 18 8 39 11 47 8 19 10 29 11
58 1 13 7 20 12 17 6 -3 10 -2 10 4 0 5 -6 12 -12 14 -8 3 -9 6 -2 6 6 1 9 12
6 26 -4 23 5 31 31 26 5 -1 6 3 2 9 -3 6 -11 8 -16 5 -5 -4 -9 -1 -9 4 0 6 6
11 14 11 8 0 17 4 20 9 4 5 -4 7 -16 5 -13 -2 -18 -2 -11 2 7 3 9 12 6 20 -3
8 1 21 8 30 11 14 13 14 21 0 5 -9 7 -20 3 -25 -3 -5 -1 -12 5 -16 7 -4 6 -13
-1 -27 -6 -11 -7 -18 -1 -14 6 3 13 -18 17 -52 8 -59 8 -62 20 -147 4 -27 9
-53 12 -57 2 -5 -2 -8 -9 -8 -9 0 -10 -2 -1 -8 6 -4 14 -32 17 -62 3 -30 8
-66 10 -80 3 -14 7 -49 10 -79 11 -95 14 -96 208 -95 92 0 171 3 174 7 4 4 13
-1 21 -11 12 -16 13 -15 6 3 -6 17 -4 18 9 8 8 -7 17 -11 20 -8 9 9 68 12 74
4 3 -5 13 -6 22 -1 22 10 43 9 61 -2 9 -6 12 -5 8 0 -3 6 29 10 78 10 55 0 82
-4 78 -11 -3 -5 0 -4 8 3 8 8 46 12 108 12 52 0 92 2 90 4 -2 3 -40 8 -84 11
-43 4 -88 9 -99 11 -12 2 -41 6 -66 9 -25 3 -65 8 -90 11 -25 3 -56 7 -70 9
-14 1 -50 5 -80 9 -30 3 -80 8 -110 11 -72 7 -83 9 -97 18 -7 5 -13 5 -13 1 0
-4 -9 1 -20 11 -16 14 -17 20 -8 27 9 5 7 8 -7 8 -17 0 -17 2 -5 10 8 5 10 10
4 10 -14 0 -14 31 -1 48 7 9 6 11 -7 6 -19 -7 -21 6 -3 25 10 11 10 13 0 7 -9
-5 -13 1 -14 16 -3 64 -14 126 -24 136 -3 3 3 14 12 24 13 15 14 19 3 16 -9
-2 -15 6 -16 20 -1 12 -2 23 -3 25 -9 11 -9 73 1 84 9 11 8 13 -2 11 -8 -2
-14 5 -15 17 0 11 -4 26 -8 33 -5 7 -4 12 2 12 6 0 11 5 11 11 0 5 -6 7 -12 3
-7 -4 -10 -4 -6 0 4 5 3 19 -2 32 -6 16 -6 24 1 24 6 0 7 5 3 12 -4 7 -9 26
-10 43 -1 16 -3 30 -4 30 -1 0 -4 11 -6 24 -2 14 -7 27 -9 29 -3 3 3 11 13 19
11 9 12 12 3 11 -13 -3 -22 34 -25 105 0 15 -5 27 -11 27 -5 0 -3 5 5 10 8 5
10 10 4 10 -6 0 -11 6 -12 13 -1 6 -3 31 -6 55 -2 23 -1 40 4 37 5 -3 3 7 -5
22 -7 16 -12 39 -11 53 1 14 -3 28 -9 33 -6 4 -5 10 5 17 10 6 11 10 3 10 -8
0 -13 13 -13 29 0 16 -4 41 -10 56 -8 20 -7 24 3 19 8 -5 8 -2 -2 9 -9 11 -10
17 -2 17 6 0 11 5 11 11 0 5 -4 7 -10 4 -6 -3 -11 5 -11 19 -2 34 -3 37 -17
64 -11 19 -21 22 -68 22 -45 0 -59 -4 -79 -25z m-773 -1097 c-6 -6 -15 -8 -19
-4 -4 4 -1 11 7 16 8 5 17 7 19 4 3 -2 -1 -10 -7 -16z"/>
<path d="M1795 3341 c-3 -5 -2 -12 3 -15 5 -3 9 1 9 9 0 17 -3 19 -12 6z"/>
<path d="M1819 3148 c-5 -18 -6 -38 -1 -34 7 8 12 36 6 36 -2 0 -4 -1 -5 -2z"/>
<path d="M1836 3018 c3 -5 10 -6 15 -3 13 9 11 12 -6 12 -8 0 -12 -4 -9 -9z"/>
<path d="M3345 2993 c-55 -15 -130 -89 -115 -113 7 -11 12 -11 23 -2 7 7 16 9
19 6 3 -3 5 3 5 13 -1 10 4 17 11 16 6 -2 12 4 12 13 0 14 2 15 17 3 10 -8 14
-9 10 -2 -8 13 2 22 35 29 61 14 156 -5 142 -28 -4 -7 -3 -8 5 -4 13 8 61 -37
61 -57 0 -7 6 -5 16 4 14 15 14 19 -5 50 -12 19 -21 30 -21 24 0 -6 -3 -6 -8
0 -27 39 -144 66 -207 48z"/>
<path d="M3405 2930 c2 -4 -7 -7 -20 -7 -28 0 -103 -46 -112 -68 -3 -8 -2 -22
1 -31 5 -12 13 -8 40 20 18 20 40 36 47 37 8 0 26 3 40 5 32 5 88 -17 113 -45
38 -42 57 -14 19 30 -7 9 -11 18 -8 21 3 2 -1 5 -7 5 -7 1 -37 10 -66 21 -28
11 -50 17 -47 12z"/>
<path d="M3400 2849 c-19 -4 -39 -5 -45 -2 -5 4 -7 3 -3 -2 9 -10 -11 -37 -22
-30 -5 3 -6 -4 -3 -15 6 -24 19 -25 39 -5 19 19 63 19 88 0 26 -20 36 -19 36
3 0 10 -12 27 -27 38 -22 16 -36 19 -63 13z"/>
<path d="M2776 2781 c-23 -9 -25 -18 -27 -139 l-1 -93 -22 20 c-51 48 -148 42
-205 -13 -15 -15 -31 -23 -36 -19 -4 5 -5 3 -2 -3 6 -11 -13 -74 -23 -74 -3 0
-5 -17 -5 -37 1 -21 -3 -46 -7 -55 -5 -11 -5 -18 1 -18 5 0 12 -18 16 -41 9
-52 74 -123 127 -137 42 -12 101 -6 139 14 15 7 30 10 34 6 3 -4 5 -2 4 3 -2
6 10 30 26 55 16 25 28 53 26 64 -1 10 1 16 6 13 4 -3 7 27 7 66 -1 40 3 78
10 86 8 11 8 13 -1 8 -13 -8 -13 40 1 62 6 10 5 12 -2 7 -16 -10 -15 7 1 23
10 11 10 13 0 7 -9 -5 -13 0 -13 13 0 12 6 21 13 21 8 0 8 3 1 8 -13 8 -13 71
0 91 7 10 6 12 -4 6 -10 -6 -12 -1 -8 19 4 19 0 29 -13 36 -20 11 -17 11 -43
1z m-79 -283 c52 -25 69 -141 29 -201 -24 -35 -92 -60 -106 -37 -4 6 -10 11
-14 11 -19 -3 -25 1 -41 25 -25 39 -30 115 -10 158 18 38 30 45 39 24 3 -7 4
-4 3 6 -3 33 46 39 100 14z"/>
<path d="M3376 2756 c-15 -31 -15 -40 -4 -63 17 -36 44 -40 73 -13 24 23 24
52 -1 81 -8 9 -11 20 -7 24 5 5 1 4 -8 -3 -11 -8 -19 -8 -26 -1 -7 7 -15 -1
-27 -25z"/>
<path d="M2950 2742 c-29 -10 -37 -35 -35 -118 0 -52 -3 -84 -10 -84 -7 0 -6
-3 1 -8 13 -9 13 -104 -1 -114 -7 -5 -6 -8 0 -8 7 0 10 -41 10 -115 -1 -63 1
-115 4 -116 3 -1 24 -2 46 -3 l40 -3 -2 46 c-5 76 -4 142 2 151 6 10 44 2 64
-14 11 -8 13 -8 8 0 -4 8 13 13 54 17 33 3 66 11 74 17 8 7 15 9 15 6 0 -4 11
5 24 19 15 16 30 24 37 19 7 -4 9 -3 5 4 -3 6 0 35 8 65 28 107 -25 210 -122
236 -42 12 -192 13 -222 3z m205 -92 c33 -11 44 -23 28 -33 -5 -2 -3 -2 4 -1
17 4 24 -10 25 -54 1 -84 -49 -112 -189 -103 -20 1 -21 6 -21 101 -1 55 3 98
8 95 5 -3 11 -1 14 4 7 11 85 6 131 -9z"/>
<path d="M2210 2594 c-92 -28 -142 -107 -141 -221 0 -43 7 -75 21 -103 11 -22
18 -46 14 -52 -4 -7 -3 -8 4 -4 7 4 28 -5 47 -20 31 -23 44 -27 98 -25 91 2
116 5 111 12 -2 4 3 9 11 13 18 7 19 35 1 58 -11 15 -17 16 -58 3 -25 -7 -51
-9 -58 -5 -7 4 -20 6 -28 2 -9 -3 -13 -1 -9 5 5 7 0 9 -13 6 -18 -5 -25 5 -21
29 0 5 -5 7 -11 5 -7 -1 -14 7 -16 18 -2 15 3 20 23 21 15 1 22 -2 18 -9 -4
-6 -1 -7 8 -2 11 8 30 11 107 17 7 1 29 15 48 32 50 43 58 105 20 167 -14 24
-26 40 -26 35 0 -5 -6 -4 -13 2 -26 22 -91 29 -137 16z m100 -89 c11 -10 20
-28 20 -40 0 -27 -24 -50 -41 -39 -7 4 -9 3 -6 -3 4 -6 -1 -14 -10 -17 -9 -4
-20 -2 -23 5 -4 6 -10 7 -13 2 -8 -13 -87 -16 -87 -3 0 6 4 9 8 6 4 -3 7 7 6
22 -5 69 94 114 146 67z"/>
<path d="M3668 2597 c-52 -13 -84 -36 -113 -82 -16 -26 -19 -50 -19 -184 l-1
-154 25 -3 c59 -5 66 2 60 61 -3 30 -2 61 2 69 5 8 4 17 -2 21 -6 4 -7 11 -4
17 4 6 7 36 8 68 2 61 26 106 53 96 7 -3 13 -1 13 5 0 13 52 3 62 -13 4 -7 8
-9 8 -3 0 5 7 -1 16 -13 9 -13 13 -29 10 -37 -3 -8 -1 -17 4 -20 6 -4 9 -48 9
-98 -2 -161 -5 -152 41 -152 40 -1 40 0 40 37 3 240 2 256 -23 307 -11 23 -57
76 -57 66 0 -2 -19 2 -41 10 -23 8 -42 15 -43 14 0 0 -22 -6 -48 -12z"/>
<path d="M4096 2598 c-50 -11 -103 -51 -123 -94 -9 -18 -19 -32 -22 -30 -3 2
-6 -35 -6 -82 1 -77 4 -92 28 -129 15 -23 39 -50 54 -60 16 -10 30 -20 33 -23
8 -9 103 -6 118 3 6 5 17 5 24 1 7 -4 8 -3 4 4 -3 6 3 16 14 22 20 11 21 10
16 -25 -8 -50 -32 -82 -69 -94 -37 -12 -118 -7 -147 9 -22 12 -26 7 -34 -42
-4 -23 0 -28 30 -38 19 -6 34 -17 34 -23 0 -9 2 -9 8 0 8 12 36 12 48 0 4 -3
15 -2 25 4 11 5 19 8 19 5 0 -3 15 0 33 5 17 6 38 11 45 13 18 3 67 75 82 120
14 44 19 207 8 278 -19 128 -110 200 -222 176z m67 -87 c10 -1 15 -5 12 -11
-3 -5 0 -7 8 -4 16 6 51 -41 42 -56 -3 -6 -1 -10 6 -10 8 0 10 -17 5 -57 -9
-84 -52 -121 -133 -114 -16 1 -63 48 -64 64 -1 7 -3 28 -6 47 -5 45 16 113 33
106 9 -3 11 1 7 11 -5 13 -2 15 15 11 12 -3 21 -3 20 1 -2 15 3 19 20 16 9 -2
25 -4 35 -4z"/>
<path d="M1030 2579 c0 -5 5 -7 10 -4 6 3 10 8 10 11 0 2 -4 4 -10 4 -5 0 -10
-5 -10 -11z"/>
<path d="M3381 2576 c-8 -9 -11 -73 -9 -207 l3 -193 30 -1 c34 -1 58 12 49 27
-4 6 0 14 7 19 8 5 9 9 4 9 -13 0 -14 289 -1 309 6 10 6 12 -2 7 -8 -5 -12 2
-12 18 0 22 -5 26 -29 26 -16 0 -34 -6 -40 -14z"/>
<path d="M1915 2471 c-3 -5 -2 -12 3 -15 5 -3 9 1 9 9 0 17 -3 19 -12 6z"/>
<path d="M790 2386 c0 -2 7 -7 16 -10 8 -3 12 -2 9 4 -6 10 -25 14 -25 6z"/>
<path d="M3016 2338 c3 -5 10 -6 15 -3 13 9 11 12 -6 12 -8 0 -12 -4 -9 -9z"/>
<path d="M1080 2326 c0 -2 8 -10 18 -17 15 -13 16 -12 3 4 -13 16 -21 21 -21
13z"/>
<path d="M779 2303 c0 -5 -2 -16 -4 -26 -2 -11 -1 -16 3 -13 8 8 14 46 7 46
-3 0 -5 -3 -6 -7z"/>
<path d="M1555 2300 c-3 -5 -1 -10 4 -10 6 0 11 5 11 10 0 6 -2 10 -4 10 -3 0
-8 -4 -11 -10z"/>
<path d="M775 2220 c-3 -5 -1 -10 4 -10 6 0 11 5 11 10 0 6 -2 10 -4 10 -3 0
-8 -4 -11 -10z"/>
<path d="M730 2080 c0 -5 5 -10 11 -10 5 0 7 5 4 10 -3 6 -8 10 -11 10 -2 0
-4 -4 -4 -10z"/>
<path d="M695 2031 c-3 -5 -2 -12 3 -15 5 -3 9 1 9 9 0 17 -3 19 -12 6z"/>
<path d="M415 2020 c3 -5 8 -10 11 -10 2 0 4 5 4 10 0 6 -5 10 -11 10 -5 0 -7
-4 -4 -10z"/>
<path d="M1770 2025 c0 -7 30 -13 34 -7 3 4 -4 9 -15 9 -10 1 -19 0 -19 -2z"/>
<path d="M1828 2023 c7 -3 16 -2 19 1 4 3 -2 6 -13 5 -11 0 -14 -3 -6 -6z"/>
<path d="M1920 2020 c-9 -6 -10 -10 -3 -10 6 0 15 5 18 10 8 12 4 12 -15 0z"/>
<path d="M2256 2018 c3 -4 11 -5 19 -1 21 7 19 12 -4 10 -11 0 -18 -5 -15 -9z"/>
<path d="M1440 1840 c-12 -7 -10 -9 7 -7 12 0 19 5 17 9 -6 10 -6 10 -24 -2z"/>
<path d="M1399 1653 c-13 -16 -12 -17 4 -4 9 7 17 15 17 17 0 8 -8 3 -21 -13z"/>
</g>
</svg>
